<svg width="0" height="0" class="hidden">
  <symbol fill="none" xmlns="http://www.w3.org/2000/svg" viewBox="0 0 25 25" id="Calling">
    <path d="M14.4976 3.35388C18.1986 3.76488 21.1226 6.68488 21.5376 10.3859" stroke="black" stroke-width="1.5" stroke-linecap="square" stroke-linejoin="round"></path>
    <path d="M14.4976 6.89685C16.2686 7.24085 17.6526 8.62585 17.9976 10.3969" stroke="black" stroke-width="1.5" stroke-linecap="square" stroke-linejoin="round"></path>
    <path d="M10.2804 14.2729C12.0734 16.0649 14.0734 16.6129 14.0734 16.6129L16.9274 14.9699L21.5374 18.3699C20.6804 19.9029 19.5984 20.9839 18.0664 21.8419C8.91635 22.2609 2.10335 11.8869 3.05035 6.82588C3.91835 5.33288 5.03235 4.22788 6.52235 3.35388L9.76235 7.80488L8.11935 10.6589" stroke="black" stroke-width="1.5" stroke-linecap="square"></path>
  </symbol>
  <symbol version="1.1" xmlns="http://www.w3.org/2000/svg" xmlns:xlink="http://www.w3.org/1999/xlink" viewBox="0 0 24 24" id="Message">
    <title>Iconly/Light-Outline/Message</title>
    <g id="Iconly/Light-Outline/Message" stroke="none" stroke-width="1" fill="none" fill-rule="evenodd">
      <g id="Message" transform="translate(1.000000, 1.000000)" fill="#000000">
        <path d="M15.6589,1 C18.9889,1 21.4999,3.717 21.4999,7.32 L21.4999,14.188 C21.4999,16.032 20.8479,17.698 19.6629,18.88 C18.5999,19.939 17.2209,20.5 15.6749,20.5 L5.8219,20.5 C4.2789,20.5 2.9009,19.94 1.8369,18.88 C0.6519,17.698 -0.0001,16.032 -0.0001,14.188 L-0.0001,7.32 C-0.0001,3.717 2.5109,1 5.8409,1 L15.6589,1 Z M15.6589,2.5 L5.8409,2.5 C3.3259,2.5 1.4999,4.527 1.4999,7.32 L1.4999,14.188 C1.4999,15.631 1.9959,16.92 2.8959,17.817 C3.6719,18.592 4.6849,19 5.8249,19 L15.6589,19 C15.6609,18.998 15.6689,19 15.6749,19 C16.8159,19 17.8279,18.592 18.6039,17.817 C19.5049,16.92 19.9999,15.631 19.9999,14.188 L19.9999,7.32 C19.9999,4.527 18.1739,2.5 15.6589,2.5 Z M17.2349,7.1288 C17.4959,7.4498 17.4469,7.9218 17.1259,8.1838 L12.6819,11.7958 C12.1199,12.2418 11.4479,12.4648 10.7769,12.4648 C10.1079,12.4648 9.4409,12.2438 8.8829,11.8018 L4.3979,8.1858 C4.0749,7.9258 4.0249,7.4528 4.2839,7.1308 C4.5449,6.8098 5.0169,6.7588 5.3389,7.0178 L9.8199,10.6298 C10.3829,11.0758 11.1759,11.0758 11.7429,10.6258 L16.1789,7.0198 C16.5009,6.7568 16.9729,6.8068 17.2349,7.1288 Z" id="Combined-Shape"></path>
      </g>
    </g>
  </symbol>
  <symbol fill="none" xmlns="http://www.w3.org/2000/svg" viewBox="0 0 25 25" id="Location 2">
    <path fill-rule="evenodd" clip-rule="evenodd" d="M14.6505 9.73927C14.6505 8.4133 13.5761 7.33887 12.2511 7.33887C10.9251 7.33887 9.85065 8.4133 9.85065 9.73927C9.85065 11.0643 10.9251 12.1387 12.2511 12.1387C13.5761 12.1387 14.6505 11.0643 14.6505 9.73927Z" stroke="black" stroke-width="1.5" stroke-linecap="round" stroke-linejoin="round"></path>
    <path fill-rule="evenodd" clip-rule="evenodd" d="M12.2496 22.1387C12.2496 18.5358 5.22723 15.4199 5.05029 9.71248C4.92604 5.70495 8.273 2.13867 12.2496 2.13867C16.2262 2.13867 19.5722 5.70489 19.4498 9.71248C19.2718 15.537 12.2496 18.4394 12.2496 22.1387Z" stroke="black" stroke-width="1.5" stroke-linecap="round"></path>
  </symbol>
</svg>